<svg width="99" height="30" viewBox="0 0 99 30" fill="none" xmlns="http://www.w3.org/2000/svg">
<g clip-path="url(#clip0_5_900)">
<path d="M4.15979 14.538V18.6978H6.23969V16.6179H8.31958V14.538H4.15979Z" fill="#0600FF"/>
<path d="M8.31958 6.21838H4.15979V10.3782H8.31958V6.21838Z" fill="#0600FF"/>
<path d="M8.31958 10.3782H4.15979V14.538H8.31958V10.3782Z" fill="#0600FF"/>
<path d="M4.15979 10.3782H0V14.538H4.15979V10.3782Z" fill="#0600FF"/>
<path d="M12.4794 10.3782H8.31958V14.538H12.4794V10.3782Z" fill="#0600FF"/>
<path d="M36.8616 12.4711H24.3655V0H36.8616V1.7354H27.9608V5.28112H33.2914V7.11564H27.9608V10.6861H36.8616V12.4711Z" fill="#0600FF"/>
<path d="M48.2911 3.69411H44.7952V2.00827H41.2994V3.69411H39.4893V8.97523H41.225V10.7853H44.7457V9.07435H48.2911V10.7853H46.6053V12.5705H39.4893V10.8844H37.7292V9.07435H35.9439V3.69411H37.63V2.00827H39.415V0.223022H46.5309V1.90915H48.2911V3.69411Z" fill="#0600FF"/>
<path d="M61.4315 12.5705H57.9357V7.26461H52.6793V12.5705H49.0844V0.223022H52.5802V5.47936H57.8861V0.223022H61.4315V12.5705Z" fill="#0600FF"/>
<path d="M75.0678 12.5705H71.572V10.8844H69.8118V9.09941H68.0265V7.28939H66.3156V12.5705H62.7206V0.223022H66.2165V1.90915H68.0265V3.66933H69.8118V5.47936H71.5224V0.223022H75.0678V12.5705Z" fill="#0600FF"/>
<path d="M88.7041 10.7853H87.0183V12.5705H78.1422V10.8844H76.3569V2.00827H78.0431V0.223022H86.9439V1.90915H88.7041V10.7853ZM85.1587 10.7853V2.00827H79.9024V10.7853H85.1587Z" fill="#0600FF"/>
<path d="M91.5245 14.538V10.3782H98.7227V14.538H91.5245Z" fill="#0600FF"/>
<path d="M26.5329 30H16.5005V28.0781H14.4943V26.0436H12.4594V19.8825H14.3813V17.8763H16.4158V15.9261H26.5329V17.8763H18.5636V19.8825H16.5005V25.902H18.4789V27.9651H22.4918V24.037H20.542V22.0021H26.5329V30Z" fill="#0600FF"/>
<path d="M42.0757 23.9522H38.0346V25.902H40.0695V27.9651H42.0757V30H36.0848V28.1063H34.0782V25.9868H32.0434V30H28.0023V15.9261H40.0695V17.8763H42.0757V23.9522ZM38.0346 21.9174V17.961H32.0434V23.9522H36.0848V21.9174H38.0346Z" fill="#0600FF"/>
<path d="M57.6185 30H53.5774V25.9868H47.5862V30H43.545V19.9676H45.4669V17.961H47.5297V15.9261H53.5774V17.848H55.6123V19.8543H57.6185V30ZM53.5774 23.9522V19.8543H51.5711V17.961H49.508V19.9676H47.5862V23.9522H53.5774Z" fill="#0600FF"/>
<path d="M73.1613 23.924H71.2398V25.9585H63.129V30H59.0878V15.9261H71.155V17.848H73.1613V23.924ZM69.1202 23.924V17.961H63.129V23.924H69.1202Z" fill="#0600FF"/>
<path d="M88.7041 30H84.7195V23.9522H78.7282V30H74.6306V15.9261H78.6152V21.9174H84.663V15.9261H88.7041V30Z" fill="#0600FF"/>
<path d="M23.1612 1.72603H19.659V12.458H16.0817V1.80108H12.4794V0H23.1612V1.72603Z" fill="#0600FF"/>
</g>
<defs>
<clipPath id="clip0_5_900">
<rect width="98.7227" height="30" fill="white"/>
</clipPath>
</defs>
</svg>
