<svg width="458" height="458" viewBox="0 0 458 458" fill="none" xmlns="http://www.w3.org/2000/svg">
<g clip-path="url(#clip0_1_2)">
<path d="M333.139 305.333H305.333V333.139H333.139V305.333Z" fill="#0600FF"/>
<path opacity="0.3" d="M360.944 333.139H333.139V360.944H360.944V333.139Z" fill="#0600FF"/>
<path opacity="0.3" d="M333.139 360.944H305.333V388.75H333.139V360.944Z" fill="#0600FF"/>
<path opacity="0.3" d="M388.75 305.333H360.944V333.139H388.75V305.333Z" fill="#0600FF"/>
<path opacity="0.6" d="M360.944 305.333H333.139V333.139H360.944V305.333Z" fill="#0600FF"/>
<path opacity="0.6" d="M333.139 333.139H305.333V360.944H333.139V333.139Z" fill="#0600FF"/>
<path d="M458 267.167H419.833V305.333H458V267.167Z" fill="black"/>
<path d="M458 248.083H438.917V267.167H458V248.083Z" fill="black"/>
<path d="M419.833 286.25H400.75V305.333H419.833V286.25Z" fill="black"/>
<path d="M447.716 392.836V403.006H430.117V392.836H447.716Z" fill="#0600FF"/>
<path d="M458 152.667H305.333V305.333H458V152.667Z" fill="#0600FF"/>
<path d="M152.667 305.333V458H229V381.667H305.333V305.333H152.667Z" fill="#0600FF"/>
<path d="M305.333 0H152.667V152.667H305.333V0Z" fill="#0600FF"/>
<path d="M305.333 152.667H152.667V305.333H305.333V152.667Z" fill="#0600FF"/>
<path d="M152.667 152.667H0V305.333H152.667V152.667Z" fill="#0600FF"/>
<path d="M458 152.667H305.333V305.333H458V152.667Z" fill="#0600FF"/>
<path d="M152.667 305.333V458H229V381.667H305.333V305.333H152.667Z" fill="#0600FF"/>
<path d="M305.333 0H152.667V152.667H305.333V0Z" fill="#0600FF"/>
<path d="M305.333 152.667H152.667V305.333H305.333V152.667Z" fill="#0600FF"/>
<path d="M152.667 152.667H0V305.333H152.667V152.667Z" fill="#0600FF"/>
<path d="M291.007 413.356H259.254V381.667H291.007V386.076H268.39V395.086H281.935V399.748H268.39V408.821H291.007V413.356Z" fill="#0600FF"/>
<path d="M320.05 391.054H311.167V386.77H302.284V391.054H297.685V404.473H302.095V409.073H311.041V404.725H320.05V409.073H315.766V413.609H297.685V409.324H293.212V404.725H288.675V391.054H292.96V386.77H297.496V382.233H315.578V386.518H320.05V391.054Z" fill="#0600FF"/>
<path d="M353.441 413.609H344.558V400.126H331.201V413.609H322.066V382.233H330.949V395.59H344.432V382.233H353.441V413.609Z" fill="#0600FF"/>
<path d="M388.091 413.609H379.208V409.324H374.735V404.789H370.199V400.189H365.851V413.609H356.716V382.233H365.6V386.518H370.199V390.991H374.735V395.59H379.082V382.233H388.091V413.609Z" fill="#0600FF"/>
<path d="M422.742 409.073H418.458V413.609H395.903V409.324H391.367V386.77H395.652V382.233H418.269V386.518H422.742V409.073ZM413.733 409.073V386.77H400.376V409.073H413.733Z" fill="#0600FF"/>
<path d="M264.761 457.898H239.269V453.015H234.171V447.845H229V432.189H233.884V427.091H239.053V422.136H264.761V427.091H244.511V432.189H239.269V447.485H244.296V452.728H254.493V442.746H249.538V437.575H264.761V457.898Z" fill="#0600FF"/>
<path d="M304.257 442.531H293.988V447.485H299.159V452.728H304.257V457.898H289.033V453.087H283.934V447.701H278.764V457.898H268.495V422.136H299.159V427.091H304.257V442.531ZM293.988 437.36V427.307H278.764V442.531H289.033V437.36H293.988Z" fill="#0600FF"/>
<path d="M343.752 457.898H333.483V447.701H318.259V457.898H307.99V432.406H312.874V427.307H318.115V422.136H333.483V427.02H338.654V432.118H343.752V457.898ZM333.483 442.531V432.118H328.385V427.307H323.143V432.406H318.259V442.531H333.483Z" fill="#0600FF"/>
<path d="M383.247 442.459H378.364V447.629H357.754V457.898H347.485V422.136H378.149V427.02H383.247V442.459ZM372.978 442.459V427.307H357.754V442.459H372.978Z" fill="#0600FF"/>
<path d="M422.742 457.898H412.617V442.531H397.393V457.898H386.98V422.136H397.106V437.36H412.473V422.136H422.742V457.898Z" fill="#0600FF"/>
<path d="M256.194 386.053H247.295V413.323H238.204V386.243H229.051V381.667H256.194V386.053Z" fill="#0600FF"/>
</g>
<defs>
<clipPath id="clip0_1_2">
<rect width="458" height="458" fill="white"/>
</clipPath>
</defs>
</svg>
