<?xml version="1.0" encoding="UTF-8"?>
<svg id="_レイヤー_2" data-name="レイヤー 2" xmlns="http://www.w3.org/2000/svg" viewBox="0 0 778.64 778.64">
  <defs>
    <style>
      .cls-1, .cls-2, .cls-3 {
        fill: #0600ff;
        stroke-width: 0px;
      }

      .cls-2 {
        opacity: .6;
      }

      .cls-3 {
        opacity: .3;
      }
    </style>
  </defs>
  <g id="_レイヤー_1-2" data-name="レイヤー 1">
    <g>
      <rect class="cls-1" x="519.1" y="519.1" width="43.26" height="43.26"/>
      <rect class="cls-3" x="562.35" y="562.35" width="43.26" height="43.26"/>
      <rect class="cls-3" x="519.1" y="605.61" width="43.26" height="43.26"/>
      <rect class="cls-3" x="605.61" y="519.1" width="43.26" height="43.26"/>
      <rect class="cls-2" x="562.35" y="519.1" width="43.26" height="43.26"/>
      <rect class="cls-2" x="519.1" y="562.35" width="43.26" height="43.26"/>
      <path class="cls-1" d="M767.83,667.07v17.46s-30.22,0-30.22,0v-17.46s30.22,0,30.22,0Z"/>
      <polygon class="cls-1" points="519.1 259.55 519.1 0 259.55 0 259.55 259.55 0 259.55 0 519.1 259.55 519.1 259.55 778.64 389.32 778.64 389.32 648.87 519.1 648.87 519.1 519.1 519.1 519.1 778.64 519.1 778.64 259.55 519.1 259.55"/>
      <path class="cls-1" d="M494.88,702.82h-54.06v-53.95h54.06v7.51h-38.5v15.34h23.06v7.94h-23.06v15.45h38.5v7.72Z"/>
      <path class="cls-1" d="M545.27,664.17h-15.39v-7.42h-15.39v7.42h-7.97v23.25h7.64v7.97h15.5v-7.53h15.61v7.53h-7.42v7.86h-31.33v-7.42h-7.75v-7.97h-7.86v-23.69h7.42v-7.42h7.86v-7.86h31.33v7.42h7.75v7.86Z"/>
      <path class="cls-1" d="M603.12,703.25h-15.39v-23.36h-23.14v23.36h-15.83v-54.36h15.39v23.14h23.36v-23.14h15.61v54.36Z"/>
      <path class="cls-1" d="M663.15,703.25h-15.39v-7.42h-7.75v-7.86h-7.86v-7.97h-7.53v23.25h-15.83v-54.36h15.39v7.42h7.97v7.75h7.86v7.97h7.53v-23.14h15.61v54.36Z"/>
      <path class="cls-1" d="M723.19,695.39h-7.42v7.86h-39.08v-7.42h-7.86v-39.08h7.42v-7.86h39.19v7.42h7.75v39.08ZM707.58,695.39v-38.64h-23.14v38.64h23.14Z"/>
      <path class="cls-1" d="M450.2,778.64h-43.4v-8.31h-8.68v-8.8h-8.8v-26.65h8.31v-8.68h8.8v-8.44h43.76v8.44h-34.47v8.68h-8.92v26.04h8.56v8.92h17.36v-16.99h-8.43v-8.8h25.92v34.6Z"/>
      <path class="cls-1" d="M517.43,752.48h-17.48v8.43h8.8v8.92h8.68v8.8h-25.92v-8.19h-8.68v-9.17h-8.8v17.36h-17.48v-60.88h52.2v8.44h8.68v26.28ZM499.95,743.68v-17.11h-25.92v25.92h17.48v-8.8h8.43Z"/>
      <path class="cls-1" d="M584.67,778.64h-17.48v-17.36h-25.92v17.36h-17.48v-43.4h8.31v-8.68h8.92v-8.8h26.16v8.31h8.8v8.68h8.68v43.89ZM567.18,752.48v-17.73h-8.68v-8.19h-8.92v8.68h-8.31v17.24h25.92Z"/>
      <path class="cls-1" d="M651.9,752.36h-8.31v8.8h-35.09v17.48h-17.48v-60.88h52.2v8.31h8.68v26.28ZM634.42,752.36v-25.79h-25.92v25.79h25.92Z"/>
      <path class="cls-1" d="M719.13,778.64h-17.24v-26.16h-25.92v26.16h-17.73v-60.88h17.24v25.92h26.16v-25.92h17.48v60.88Z"/>
      <path class="cls-1" d="M435.61,656.34h-15.15v46.42h-15.47v-46.1h-15.58v-7.79h46.21v7.47Z"/>
    </g>
  </g>
</svg>