<svg width="1188" height="172" viewBox="0 0 1188 172" fill="none" xmlns="http://www.w3.org/2000/svg">
<path d="M4.67175 85.0042C4.67175 82.4189 5.24627 79.7378 6.3953 76.961C7.54433 74.0884 9.07637 71.4552 10.9914 69.0614C12.9065 66.5718 14.9652 64.7046 17.1675 63.4598L60.687 38.3248V52.6877L17.1675 77.8227V128.093C17.1675 125.508 17.742 122.826 18.891 120.05C20.04 117.177 21.5242 114.544 23.3435 112.15C25.2586 109.66 27.3172 107.793 29.5195 106.549L60.687 88.5949V102.958L17.1675 128.093V164L4.67175 171.182V85.0042ZM60.687 88.5949L29.5195 106.549C27.3172 107.793 25.2586 109.66 23.3435 112.15C21.5242 114.544 20.04 117.177 18.891 120.05C17.742 122.826 17.1675 125.508 17.1675 128.093L13.1459 125.795C13.1459 123.209 13.7204 120.528 14.8694 117.752C16.0184 114.879 17.5026 112.246 19.3219 109.852C21.2369 107.362 23.2956 105.495 25.4979 104.25L56.6654 86.2968L60.687 88.5949ZM60.687 38.3248L17.1675 63.4598C14.9652 64.7046 12.9065 66.5718 10.9914 69.0614C9.07637 71.4552 7.54433 74.0884 6.3953 76.961C5.24627 79.7378 4.67175 82.4189 4.67175 85.0042V171.182L0.650141 168.883V82.7061C0.650141 80.1208 1.22466 77.4397 2.37369 74.6629C3.52272 71.7903 5.05476 69.1571 6.96981 66.7633C8.88486 64.2737 10.9435 62.4066 13.1459 61.1618L56.6654 36.0267L60.687 38.3248Z" fill="white"/>
<path d="M186.574 151.792L155.551 169.745C152.199 171.66 149.279 171.9 146.789 170.463C144.3 169.027 143.055 166.394 143.055 162.564V70.6413L155.551 63.4598V155.382L186.574 137.429V45.5062L199.07 38.3248V130.247C199.07 132.737 198.448 135.418 197.203 138.291C196.054 141.163 194.522 143.844 192.607 146.334C190.787 148.728 188.777 150.547 186.574 151.792ZM199.07 38.3248L186.574 45.5062L182.553 43.2082L195.048 36.0267L199.07 38.3248ZM186.574 45.5062V137.429L182.553 135.131V43.2082L186.574 45.5062ZM186.574 137.429L155.551 155.382L151.529 153.084L182.553 135.131L186.574 137.429ZM155.551 63.4598L143.055 70.6413L139.033 68.3432L151.529 61.1618L155.551 63.4598ZM143.055 70.6413V162.564C143.055 166.394 144.3 169.027 146.789 170.463L142.768 168.165C140.278 166.729 139.033 164.096 139.033 160.266V68.3432L143.055 70.6413Z" fill="white"/>
<path d="M281.438 70.6413L293.934 63.4598V106.549L324.957 88.5949V45.5062L337.453 38.3248V67.0506C337.453 69.5401 336.831 72.2212 335.586 75.0938C334.437 77.9664 332.905 80.6474 330.99 83.137C329.171 85.5308 327.16 87.3501 324.957 88.5949C328.213 86.6799 331.086 86.4405 333.575 87.8768C336.161 89.313 337.453 91.9462 337.453 95.7764V138.865L324.957 146.046V102.958L293.934 120.911V164L281.438 171.182V70.6413ZM324.957 102.958V146.046L320.936 143.748V100.66L324.957 102.958ZM333.719 87.8768C331.134 86.4405 328.213 86.6799 324.957 88.5949L320.936 86.2968C324.191 84.3818 327.112 84.1424 329.697 85.5787L333.719 87.8768ZM337.453 38.3248L324.957 45.5062L320.936 43.2082L333.432 36.0267L337.453 38.3248ZM324.957 45.5062V88.5949L320.936 86.2968V43.2082L324.957 45.5062ZM324.957 88.5949L293.934 106.549L289.912 104.25L320.936 86.2968L324.957 88.5949ZM293.934 63.4598L281.438 70.6413L277.416 68.3432L289.912 61.1618L293.934 63.4598ZM281.438 70.6413V171.182L277.416 168.883V68.3432L281.438 70.6413Z" fill="white"/>
<path d="M463.34 151.792L432.317 169.745C428.965 171.66 426.045 171.9 423.555 170.463C421.066 169.027 419.821 166.394 419.821 162.564V70.6413L432.317 63.4598V155.382L463.34 137.429V45.5062L475.836 38.3248V130.247C475.836 132.737 475.214 135.418 473.969 138.291C472.82 141.163 471.288 143.844 469.373 146.334C467.554 148.728 465.543 150.547 463.34 151.792ZM475.836 38.3248L463.34 45.5062L459.319 43.2082L471.815 36.0267L475.836 38.3248ZM463.34 45.5062V137.429L459.319 135.131V43.2082L463.34 45.5062ZM463.34 137.429L432.317 155.382L428.295 153.084L459.319 135.131L463.34 137.429ZM432.317 63.4598L419.821 70.6413L415.799 68.3432L428.295 61.1618L432.317 63.4598ZM419.821 70.6413V162.564C419.821 166.394 421.066 169.027 423.555 170.463L419.534 168.165C417.044 166.729 415.799 164.096 415.799 160.266V68.3432L419.821 70.6413Z" fill="white"/>
<path d="M583.052 168.309C579.796 170.224 576.924 170.463 574.434 169.027C571.945 167.591 570.7 164.958 570.7 161.128L589.228 150.355V52.6877L601.724 45.5062V143.174L620.395 132.402V34.7341L632.891 27.5526V110.857C632.891 113.347 632.269 116.028 631.024 118.901C629.875 121.773 628.343 124.454 626.428 126.944C624.608 129.338 622.598 131.157 620.395 132.402C620.395 134.891 619.821 137.572 618.672 140.445C617.523 143.318 615.991 145.999 614.076 148.488C612.161 150.882 610.102 152.701 607.9 153.946L583.052 168.309ZM570.7 161.128C567.348 163.043 564.428 163.282 561.938 161.846C559.449 160.409 558.204 157.776 558.204 153.946V70.6413L570.7 63.4598V161.128ZM632.891 27.5526L620.395 34.7341L616.374 32.436L628.869 25.2546L632.891 27.5526ZM620.395 34.7341V132.402L616.374 130.104V32.436L620.395 34.7341ZM620.395 132.402L601.724 143.174L597.702 140.876L616.374 130.104L620.395 132.402ZM589.228 150.355L570.7 161.128L566.678 158.829L585.206 148.057L589.228 150.355ZM570.7 161.128C570.7 164.958 571.945 167.591 574.434 169.027L570.412 166.729C567.923 165.293 566.678 162.66 566.678 158.829L570.7 161.128ZM601.724 45.5062L589.228 52.6877L585.206 50.3896L597.702 43.2082L601.724 45.5062ZM589.228 52.6877V150.355L585.206 148.057V50.3896L589.228 52.6877ZM570.7 63.4598L558.204 70.6413L554.182 68.3432L566.678 61.1618L570.7 63.4598ZM558.204 70.6413V153.946C558.204 157.776 559.449 160.409 561.938 161.846L557.917 159.548C555.427 158.111 554.182 155.478 554.182 151.648V68.3432L558.204 70.6413Z" fill="white"/>
<path d="M727.738 57.7147L758.762 39.7611C762.017 37.846 764.89 37.6066 767.379 39.0429C769.965 40.4792 771.257 43.1124 771.257 46.9425V138.865L758.762 146.046V117.321L727.738 135.274V164L715.242 171.182V79.259C715.242 76.6737 715.816 73.9926 716.966 71.2158C718.115 68.3432 719.647 65.71 721.562 63.3162C723.477 60.8267 725.535 58.9595 727.738 57.7147ZM758.762 102.958V54.124L727.738 72.0776V120.911L758.762 102.958ZM758.762 117.321V146.046L754.74 143.748V115.023L758.762 117.321ZM758.762 54.124V102.958L754.74 100.66V51.8259L758.762 54.124ZM758.762 102.958L727.738 120.911L723.716 118.613L754.74 100.66L758.762 102.958ZM767.523 39.0429C764.938 37.6066 762.017 37.846 758.762 39.7611L727.738 57.7147C725.535 58.9595 723.477 60.8267 721.562 63.3162C719.647 65.71 718.115 68.3432 716.966 71.2158C715.816 73.9926 715.242 76.6737 715.242 79.259V171.182L711.22 168.883V76.961C711.22 74.3756 711.795 71.6946 712.944 68.9177C714.093 66.0452 715.625 63.412 717.54 61.0182C719.455 58.5286 721.514 56.6614 723.716 55.4166L754.74 37.463C757.996 35.548 760.916 35.3086 763.501 36.7449L767.523 39.0429Z" fill="white"/>
<path d="M897.145 117.321L866.121 135.274V164L853.625 171.182V64.8961L897.145 39.7611C900.4 37.846 903.273 37.6066 905.762 39.0429C908.348 40.4792 909.64 43.1124 909.64 46.9425V81.4135C909.64 83.903 909.018 86.5841 907.773 89.4567C906.624 92.3293 905.092 95.0103 903.177 97.4999C901.358 99.8937 899.347 101.713 897.145 102.958C900.4 101.043 903.273 100.803 905.762 102.24C908.348 103.676 909.64 106.309 909.64 110.139V138.865L897.145 146.046V117.321ZM897.145 102.958V54.124L866.121 72.0776V120.911L897.145 102.958ZM897.145 117.321V146.046L893.123 143.748V115.023L897.145 117.321ZM905.906 102.24C903.321 100.803 900.4 101.043 897.145 102.958L893.123 100.66C896.379 98.7447 899.299 98.5053 901.884 99.9416L905.906 102.24ZM897.145 54.124V102.958L893.123 100.66V51.8259L897.145 54.124ZM897.145 102.958L866.121 120.911L862.099 118.613L893.123 100.66L897.145 102.958ZM905.906 39.0429C903.321 37.6066 900.4 37.846 897.145 39.7611L853.625 64.8961L849.604 62.5981L893.123 37.463C896.379 35.548 899.299 35.3086 901.884 36.7449L905.906 39.0429ZM853.625 64.8961V171.182L849.604 168.883V62.5981L853.625 64.8961Z" fill="white"/>
<path d="M1004.5 57.7147L1035.53 39.7611C1038.78 37.846 1041.66 37.6066 1044.15 39.0429C1046.73 40.4792 1048.02 43.1124 1048.02 46.9425V138.865L1035.53 146.046V117.321L1004.5 135.274V164L992.008 171.182V79.259C992.008 76.6737 992.583 73.9926 993.732 71.2158C994.881 68.3432 996.413 65.71 998.328 63.3162C1000.24 60.8267 1002.3 58.9595 1004.5 57.7147ZM1035.53 102.958V54.124L1004.5 72.0776V120.911L1035.53 102.958ZM1035.53 117.321V146.046L1031.51 143.748V115.023L1035.53 117.321ZM1035.53 54.124V102.958L1031.51 100.66V51.8259L1035.53 54.124ZM1035.53 102.958L1004.5 120.911L1000.48 118.613L1031.51 100.66L1035.53 102.958ZM1044.29 39.0429C1041.7 37.6066 1038.78 37.846 1035.53 39.7611L1004.5 57.7147C1002.3 58.9595 1000.24 60.8267 998.328 63.3162C996.413 65.71 994.881 68.3432 993.732 71.2158C992.583 73.9926 992.008 76.6737 992.008 79.259V171.182L987.987 168.883V76.961C987.987 74.3756 988.561 71.6946 989.71 68.9177C990.859 66.0452 992.391 63.412 994.306 61.0182C996.221 58.5286 998.28 56.6614 1000.48 55.4166L1031.51 37.463C1034.76 35.548 1037.68 35.3086 1040.27 36.7449L1044.29 39.0429Z" fill="white"/>
<path d="M1152.8 143.892V72.0776L1130.39 85.0042V70.6413L1187.56 37.6066V51.9695L1165.15 64.8961V136.711L1187.56 123.784V138.147L1130.39 171.182V156.819L1152.8 143.892ZM1152.8 143.892L1130.39 156.819L1126.37 154.521L1148.78 141.594L1152.8 143.892ZM1130.39 156.819V171.182L1126.37 168.883V154.521L1130.39 156.819ZM1187.56 123.784L1165.15 136.711L1161.13 134.413L1183.53 121.486L1187.56 123.784ZM1152.8 72.0776V143.892L1148.78 141.594V69.7795L1152.8 72.0776ZM1187.56 37.6066L1130.39 70.6413L1126.37 68.3432L1183.53 35.3086L1187.56 37.6066ZM1130.39 70.6413V85.0042L1126.37 82.7061V68.3432L1130.39 70.6413Z" fill="white"/>
<path d="M2.33999 11.4001V15.0001L7.51999 12.0001V14.0001L0.599993 18.0001V12.4001C0.599993 12.0401 0.679993 11.6667 0.839993 11.2801C0.999993 10.8801 1.21333 10.5134 1.47999 10.1801C1.74666 9.83341 2.03333 9.57341 2.33999 9.40008L5.79999 7.40008V3.20008L2.33999 5.20008V6.80008L0.599993 7.80008V6.20008C0.599993 5.84008 0.679993 5.46675 0.839993 5.08008C0.999993 4.68008 1.21333 4.31341 1.47999 3.98008C1.74666 3.63341 2.03333 3.37341 2.33999 3.20008L5.79999 1.20008C6.25333 0.933411 6.65333 0.900078 6.99999 1.10008C7.34666 1.30008 7.51999 1.66675 7.51999 2.20008V6.40008C7.51999 6.74675 7.43999 7.12008 7.27999 7.52008C7.11999 7.92008 6.90666 8.29341 6.63999 8.64008C6.38666 8.97341 6.10666 9.22675 5.79999 9.40008L2.33999 11.4001ZM5.79999 3.20008V7.40008L5.23999 7.08008V2.88008L5.79999 3.20008ZM7.51999 12.0001L2.33999 15.0001L1.77999 14.6801L6.95999 11.6801L7.51999 12.0001ZM5.79999 7.40008L2.33999 9.40008C2.03333 9.57341 1.74666 9.83341 1.47999 10.1801C1.21333 10.5134 0.999993 10.8801 0.839993 11.2801C0.679993 11.6667 0.599993 12.0401 0.599993 12.4001V18.0001L0.0399933 17.6801V12.0801C0.0399933 11.7201 0.119993 11.3467 0.279993 10.9601C0.439993 10.5601 0.653327 10.1934 0.919993 9.86008C1.18666 9.51341 1.47333 9.25341 1.77999 9.08008L5.23999 7.08008L5.79999 7.40008ZM6.99999 1.10008C6.65333 0.900078 6.25333 0.933411 5.79999 1.20008L2.33999 3.20008C2.03333 3.37341 1.74666 3.63341 1.47999 3.98008C1.21333 4.31341 0.999993 4.68008 0.839993 5.08008C0.679993 5.46675 0.599993 5.84008 0.599993 6.20008V7.80008L0.0399933 7.48008V5.88008C0.0399933 5.52008 0.119993 5.14675 0.279993 4.76008C0.439993 4.36008 0.653327 3.99341 0.919993 3.66008C1.18666 3.31341 1.47333 3.05341 1.77999 2.88008L5.23999 0.880078C5.69333 0.613411 6.09333 0.580078 6.43999 0.780078L6.99999 1.10008Z" fill="white"/>
<path d="M16.1906 9.40008L12.7306 11.4001C12.264 11.6667 11.8573 11.7001 11.5106 11.5001C11.164 11.3001 10.9906 10.9334 10.9906 10.4001V5.00008L12.7306 4.00008L17.9106 1.00008V3.00008L14.4506 5.00008C13.9973 5.26674 13.5973 5.30008 13.2506 5.10008C12.904 4.90008 12.7306 4.53341 12.7306 4.00008V9.40008L16.1906 7.40008C16.644 7.13341 17.044 7.10008 17.3906 7.30008C17.7373 7.50008 17.9106 7.86675 17.9106 8.40008V12.0001C17.9106 12.3467 17.8306 12.7201 17.6706 13.1201C17.5106 13.5201 17.2973 13.8934 17.0306 14.2401C16.7773 14.5734 16.4973 14.8267 16.1906 15.0001L10.9906 18.0001V16.0001L16.1906 13.0001V9.40008ZM16.1906 9.40008V13.0001L15.6306 12.6801V9.08008L16.1906 9.40008ZM16.1906 13.0001L10.9906 16.0001L10.4306 15.6801L15.6306 12.6801L16.1906 13.0001ZM10.9906 16.0001V18.0001L10.4306 17.6801V15.6801L10.9906 16.0001ZM17.9106 1.00008L12.7306 4.00008L12.1706 3.68008L17.3506 0.680078L17.9106 1.00008ZM17.3906 7.30008C17.044 7.10008 16.644 7.13341 16.1906 7.40008L12.7306 9.40008L12.1706 9.08008L15.6306 7.08008C16.084 6.81341 16.484 6.78008 16.8306 6.98008L17.3906 7.30008ZM12.7306 4.00008C12.7306 4.53341 12.904 4.90008 13.2506 5.10008L12.6906 4.78008C12.344 4.58008 12.1706 4.21341 12.1706 3.68008L12.7306 4.00008ZM10.9906 5.00008V10.4001C10.9906 10.9334 11.164 11.3001 11.5106 11.5001L10.9506 11.1801C10.604 10.9801 10.4306 10.6134 10.4306 10.0801V4.68008L10.9906 5.00008ZM12.7306 4.00008L10.9906 5.00008L10.4306 4.68008L12.1706 3.68008L12.7306 4.00008Z" fill="white"/>
<path d="M24.8412 1.60008C25.4546 1.24008 26.0212 1.10008 26.5412 1.18008C27.0746 1.24675 27.5012 1.49341 27.8212 1.92008C28.1412 2.33341 28.3012 2.89341 28.3012 3.60008V11.6001C28.3012 12.1334 28.2079 12.6934 28.0212 13.2801C27.8346 13.8667 27.5812 14.4401 27.2612 15.0001C26.9412 15.5601 26.5746 16.0667 26.1612 16.5201C25.7479 16.9734 25.3079 17.3334 24.8412 17.6001C24.2279 17.9467 23.6546 18.0867 23.1212 18.0201C22.6012 17.9534 22.1812 17.7067 21.8612 17.2801C21.5412 16.8667 21.3812 16.3067 21.3812 15.6001V7.60008C21.3812 7.06674 21.4746 6.50674 21.6612 5.92008C21.8479 5.33341 22.1012 4.76008 22.4212 4.20008C22.7412 3.64008 23.1079 3.13341 23.5212 2.68008C23.9479 2.22674 24.3879 1.86674 24.8412 1.60008ZM26.5812 4.60008C26.5812 4.06674 26.4079 3.70008 26.0612 3.50008C25.7146 3.30008 25.3079 3.33341 24.8412 3.60008C24.5346 3.77341 24.2479 4.03341 23.9812 4.38008C23.7279 4.71341 23.5212 5.08008 23.3612 5.48008C23.2012 5.86674 23.1212 6.24008 23.1212 6.60008V14.6001C23.1212 15.1334 23.2946 15.5001 23.6412 15.7001C23.9879 15.9001 24.3879 15.8667 24.8412 15.6001C25.1479 15.4267 25.4346 15.1734 25.7012 14.8401C25.9679 14.4934 26.1812 14.1201 26.3412 13.7201C26.5012 13.3201 26.5812 12.9467 26.5812 12.6001V4.60008ZM26.0612 3.50008C26.4079 3.70008 26.5812 4.06674 26.5812 4.60008V12.6001C26.5812 12.9467 26.5012 13.3201 26.3412 13.7201C26.1812 14.1201 25.9679 14.4934 25.7012 14.8401C25.4346 15.1734 25.1479 15.4267 24.8412 15.6001C24.3879 15.8667 23.9879 15.9001 23.6412 15.7001L23.0812 15.3801C23.4279 15.5801 23.8279 15.5467 24.2812 15.2801C24.5879 15.1067 24.8746 14.8534 25.1412 14.5201C25.4079 14.1734 25.6212 13.8001 25.7812 13.4001C25.9412 13.0001 26.0212 12.6267 26.0212 12.2801V4.28008C26.0212 3.74674 25.8479 3.38008 25.5012 3.18008L26.0612 3.50008ZM27.2612 1.40008C26.9412 1.22674 26.5746 1.15341 26.1612 1.18008C25.7479 1.19341 25.3079 1.33341 24.8412 1.60008C24.3879 1.86674 23.9479 2.22674 23.5212 2.68008C23.1079 3.13341 22.7412 3.64008 22.4212 4.20008C22.1012 4.76008 21.8479 5.33341 21.6612 5.92008C21.4746 6.50674 21.3812 7.06674 21.3812 7.60008V15.6001C21.3812 16.1334 21.4746 16.5867 21.6612 16.9601C21.8479 17.3334 22.1012 17.6134 22.4212 17.8001L21.8612 17.4801C21.5412 17.2934 21.2879 17.0134 21.1012 16.6401C20.9146 16.2667 20.8212 15.8134 20.8212 15.2801V7.28008C20.8212 6.74675 20.9146 6.18674 21.1012 5.60008C21.2879 5.01341 21.5412 4.44008 21.8612 3.88008C22.1812 3.32008 22.5479 2.81341 22.9612 2.36008C23.3879 1.90674 23.8279 1.54675 24.2812 1.28008C24.7479 1.01341 25.1879 0.873411 25.6012 0.860078C26.0146 0.833412 26.3812 0.906745 26.7012 1.08008L27.2612 1.40008Z" fill="white"/>
<path d="M36.9719 9.40008L33.5119 11.4001C33.0452 11.6667 32.6385 11.7001 32.2919 11.5001C31.9452 11.3001 31.7719 10.9334 31.7719 10.4001V5.00008L33.5119 4.00008L38.6919 1.00008V3.00008L35.2319 5.00008C34.7785 5.26674 34.3785 5.30008 34.0319 5.10008C33.6852 4.90008 33.5119 4.53341 33.5119 4.00008V9.40008L36.9719 7.40008C37.4252 7.13341 37.8252 7.10008 38.1719 7.30008C38.5185 7.50008 38.6919 7.86675 38.6919 8.40008V12.0001C38.6919 12.3467 38.6119 12.7201 38.4519 13.1201C38.2919 13.5201 38.0785 13.8934 37.8119 14.2401C37.5585 14.5734 37.2785 14.8267 36.9719 15.0001L31.7719 18.0001V16.0001L36.9719 13.0001V9.40008ZM36.9719 9.40008V13.0001L36.4119 12.6801V9.08008L36.9719 9.40008ZM36.9719 13.0001L31.7719 16.0001L31.2119 15.6801L36.4119 12.6801L36.9719 13.0001ZM31.7719 16.0001V18.0001L31.2119 17.6801V15.6801L31.7719 16.0001ZM38.6919 1.00008L33.5119 4.00008L32.9519 3.68008L38.1319 0.680078L38.6919 1.00008ZM38.1719 7.30008C37.8252 7.10008 37.4252 7.13341 36.9719 7.40008L33.5119 9.40008L32.9519 9.08008L36.4119 7.08008C36.8652 6.81341 37.2652 6.78008 37.6119 6.98008L38.1719 7.30008ZM33.5119 4.00008C33.5119 4.53341 33.6852 4.90008 34.0319 5.10008L33.4719 4.78008C33.1252 4.58008 32.9519 4.21341 32.9519 3.68008L33.5119 4.00008ZM31.7719 5.00008V10.4001C31.7719 10.9334 31.9452 11.3001 32.2919 11.5001L31.7319 11.1801C31.3852 10.9801 31.2119 10.6134 31.2119 10.0801V4.68008L31.7719 5.00008ZM33.5119 4.00008L31.7719 5.00008L31.2119 4.68008L32.9519 3.68008L33.5119 4.00008Z" fill="white"/>
<path d="M43.9025 11.4001V15.0001L49.0825 12.0001V14.0001L42.1625 18.0001V12.4001C42.1625 12.0401 42.2425 11.6667 42.4025 11.2801C42.5625 10.8801 42.7758 10.5134 43.0425 10.1801C43.3092 9.83341 43.5958 9.57341 43.9025 9.40008L47.3625 7.40008V3.20008L43.9025 5.20008V6.80008L42.1625 7.80008V6.20008C42.1625 5.84008 42.2425 5.46675 42.4025 5.08008C42.5625 4.68008 42.7758 4.31341 43.0425 3.98008C43.3092 3.63341 43.5958 3.37341 43.9025 3.20008L47.3625 1.20008C47.8158 0.933411 48.2158 0.900078 48.5625 1.10008C48.9092 1.30008 49.0825 1.66675 49.0825 2.20008V6.40008C49.0825 6.74675 49.0025 7.12008 48.8425 7.52008C48.6825 7.92008 48.4692 8.29341 48.2025 8.64008C47.9492 8.97341 47.6692 9.22675 47.3625 9.40008L43.9025 11.4001ZM47.3625 3.20008V7.40008L46.8025 7.08008V2.88008L47.3625 3.20008ZM49.0825 12.0001L43.9025 15.0001L43.3425 14.6801L48.5225 11.6801L49.0825 12.0001ZM47.3625 7.40008L43.9025 9.40008C43.5958 9.57341 43.3092 9.83341 43.0425 10.1801C42.7758 10.5134 42.5625 10.8801 42.4025 11.2801C42.2425 11.6667 42.1625 12.0401 42.1625 12.4001V18.0001L41.6025 17.6801V12.0801C41.6025 11.7201 41.6825 11.3467 41.8425 10.9601C42.0025 10.5601 42.2158 10.1934 42.4825 9.86008C42.7492 9.51341 43.0358 9.25341 43.3425 9.08008L46.8025 7.08008L47.3625 7.40008ZM48.5625 1.10008C48.2158 0.900078 47.8158 0.933411 47.3625 1.20008L43.9025 3.20008C43.5958 3.37341 43.3092 3.63341 43.0425 3.98008C42.7758 4.31341 42.5625 4.68008 42.4025 5.08008C42.2425 5.46675 42.1625 5.84008 42.1625 6.20008V7.80008L41.6025 7.48008V5.88008C41.6025 5.52008 41.6825 5.14675 41.8425 4.76008C42.0025 4.36008 42.2158 3.99341 42.4825 3.66008C42.7492 3.31341 43.0358 3.05341 43.3425 2.88008L46.8025 0.880078C47.2558 0.613411 47.6558 0.580078 48.0025 0.780078L48.5625 1.10008Z" fill="white"/>
<path d="M54.4531 14.9001V3.90008L52.5531 5.00008V3.00008L52.7331 2.90008C53.1865 2.63341 53.5865 2.60008 53.9331 2.80008C54.2798 3.00008 54.4531 3.36674 54.4531 3.90008V1.90008L56.1931 0.900078V13.9001L57.9131 12.9001V14.9001L52.5531 18.0001V16.0001L54.4531 14.9001ZM54.4531 14.9001L52.5531 16.0001L51.9931 15.6801L53.8931 14.5801L54.4531 14.9001ZM52.5531 16.0001V18.0001L51.9931 17.6801V15.6801L52.5531 16.0001ZM57.9131 12.9001L56.1931 13.9001L55.6331 13.5801L57.3531 12.5801L57.9131 12.9001ZM56.1931 0.900078L54.4531 1.90008L53.8931 1.58008L55.6331 0.580078L56.1931 0.900078ZM54.4531 1.90008V3.90008L53.8931 3.58008V1.58008L54.4531 1.90008ZM54.4531 3.90008V14.9001L53.8931 14.5801V3.58008L54.4531 3.90008ZM53.9331 2.80008C53.5865 2.60008 53.1865 2.63341 52.7331 2.90008L52.5531 3.00008L51.9931 2.68008L52.1731 2.58008C52.6265 2.31341 53.0265 2.28008 53.3731 2.48008L53.9331 2.80008ZM52.5531 3.00008V5.00008L51.9931 4.68008V2.68008L52.5531 3.00008Z" fill="white"/>
</svg>
